<svg width="683" height="683" viewBox="0 0 683 683" fill="none" xmlns="http://www.w3.org/2000/svg">
<path d="M341.5 575.62C487.775 575.62 606.354 568.697 606.354 560.156C606.354 551.616 487.775 544.693 341.5 544.693C195.226 544.693 76.6465 551.616 76.6465 560.156C76.6465 568.697 195.226 575.62 341.5 575.62Z" fill="#F5F5F5"/>
<path d="M325.655 466.529H61.8936C59.8261 466.526 57.8442 465.703 56.3823 464.241C54.9203 462.779 54.0974 460.797 54.0938 458.73V87.9562C54.1153 85.9005 54.9462 83.9361 56.4062 82.4889C57.8662 81.0416 59.8378 80.2281 61.8936 80.2246H325.655C327.721 80.2282 329.701 81.0516 331.161 82.514C332.621 83.9763 333.441 85.9582 333.441 88.0245V458.73C333.441 460.796 332.621 462.778 331.161 464.24C329.701 465.702 327.721 466.526 325.655 466.529ZM61.8936 80.4978C59.9166 80.5014 58.0217 81.2884 56.6237 82.6863C55.2258 84.0842 54.4389 85.9792 54.4352 87.9562V458.73C54.4389 460.707 55.2258 462.601 56.6237 463.999C58.0217 465.397 59.9166 466.184 61.8936 466.188H325.655C327.63 466.184 329.524 465.397 330.92 463.999C332.315 462.6 333.099 460.705 333.099 458.73V87.9562C333.099 85.9805 332.315 84.0855 330.92 82.6871C329.524 81.2888 327.63 80.5014 325.655 80.4978H61.8936Z" fill="#E6E6E6"/>
<path d="M621.12 466.529H357.346C355.28 466.526 353.299 465.702 351.839 464.24C350.379 462.778 349.56 460.796 349.56 458.73V87.9562C349.578 85.9017 350.405 83.9374 351.863 82.4897C353.321 81.0421 355.291 80.2281 357.346 80.2246H621.12C623.175 80.2281 625.145 81.0421 626.603 82.4897C628.061 83.9374 628.889 85.9017 628.907 87.9562V458.73C628.907 460.796 628.087 462.778 626.627 464.24C625.167 465.702 623.187 466.526 621.12 466.529ZM357.346 80.4978C355.37 80.5014 353.477 81.2888 352.081 82.6871C350.685 84.0855 349.901 85.9805 349.901 87.9562V458.73C349.901 460.705 350.685 462.6 352.081 463.999C353.477 465.397 355.37 466.184 357.346 466.188H621.12C623.099 466.184 624.995 465.398 626.395 464C627.795 462.603 628.585 460.708 628.592 458.73V87.9562C628.585 85.9779 627.795 84.083 626.395 82.6855C624.995 81.2879 623.099 80.5014 621.12 80.4978H357.346Z" fill="#E6E6E6"/>
<path d="M129.77 535.758H73.4771V536.099H129.77V535.758Z" fill="#E0E0E0"/>
<path d="M244.514 533.025H188.058V533.367H244.514V533.025Z" fill="#E0E0E0"/>
<path d="M317.977 533.025H304.317V533.367H317.977V533.025Z" fill="#E0E0E0"/>
<path d="M181.446 544.691H118.269V545.033H181.446V544.691Z" fill="#E0E0E0"/>
<path d="M399.965 535.58H370.459V535.922H399.965V535.58Z" fill="#E0E0E0"/>
<path d="M450.274 535.58H412.122V535.922H450.274V535.58Z" fill="#E0E0E0"/>
<path d="M634.274 541.359H548.981V541.701H634.274V541.359Z" fill="#E0E0E0"/>
<path d="M563.393 156.037H498.357V201.484H563.393V156.037Z" fill="#E6E6E6"/>
<path d="M527.685 156.037H498.357V201.484H527.685V156.037Z" fill="#F0F0F0"/>
<path opacity="0.4" d="M513.001 162.199C514.917 162.199 516.789 162.767 518.382 163.831C519.975 164.896 521.216 166.408 521.949 168.178C522.682 169.948 522.874 171.895 522.5 173.774C522.126 175.652 521.204 177.378 519.85 178.732C518.495 180.087 516.769 181.009 514.891 181.383C513.012 181.757 511.065 181.565 509.295 180.832C507.525 180.099 506.013 178.858 504.949 177.265C503.884 175.672 503.316 173.8 503.316 171.884C503.316 169.316 504.337 166.852 506.153 165.036C507.969 163.22 510.433 162.199 513.001 162.199Z" fill="#E0E0E0"/>
<path d="M517.714 190.775C517.714 191.71 517.437 192.624 516.918 193.401C516.399 194.178 515.66 194.784 514.797 195.142C513.933 195.5 512.983 195.593 512.066 195.411C511.149 195.228 510.307 194.778 509.646 194.117C508.985 193.456 508.535 192.614 508.353 191.697C508.17 190.78 508.264 189.83 508.621 188.967C508.979 188.103 509.585 187.365 510.362 186.845C511.14 186.326 512.053 186.049 512.988 186.049C513.609 186.047 514.225 186.168 514.799 186.405C515.373 186.642 515.895 186.99 516.334 187.429C516.773 187.868 517.121 188.39 517.358 188.964C517.595 189.539 517.716 190.154 517.714 190.775Z" fill="#E0E0E0"/>
<path d="M512.933 175.298C514.457 175.298 515.692 174.063 515.692 172.539C515.692 171.015 514.457 169.779 512.933 169.779C511.409 169.779 510.174 171.015 510.174 172.539C510.174 174.063 511.409 175.298 512.933 175.298Z" fill="#FAFAFA"/>
<path d="M424.553 139.754H396.427V201.497H424.553V139.754Z" fill="#F0F0F0"/>
<path d="M461.094 139.754H423.774V201.497H461.094V139.754Z" fill="#E6E6E6"/>
<path d="M410.387 159.357C411.161 159.355 411.918 159.582 412.563 160.01C413.207 160.438 413.71 161.048 414.008 161.763C414.305 162.477 414.384 163.264 414.233 164.023C414.083 164.782 413.711 165.479 413.163 166.027C412.616 166.574 411.919 166.946 411.16 167.097C410.401 167.247 409.614 167.168 408.9 166.871C408.185 166.574 407.575 166.071 407.147 165.426C406.719 164.782 406.491 164.024 406.494 163.251C406.498 162.219 406.909 161.231 407.638 160.502C408.368 159.772 409.356 159.361 410.387 159.357Z" fill="white"/>
<path d="M410.388 153.277C410.774 153.277 411.152 153.392 411.473 153.607C411.794 153.821 412.045 154.126 412.193 154.483C412.341 154.84 412.379 155.233 412.304 155.612C412.228 155.991 412.042 156.339 411.769 156.612C411.496 156.885 411.148 157.071 410.769 157.147C410.39 157.222 409.997 157.183 409.64 157.035C409.283 156.888 408.978 156.637 408.764 156.316C408.549 155.995 408.435 155.617 408.435 155.231C408.435 154.974 408.485 154.72 408.583 154.483C408.681 154.246 408.825 154.031 409.007 153.849C409.188 153.668 409.403 153.524 409.64 153.426C409.877 153.328 410.131 153.277 410.388 153.277Z" fill="white"/>
<path d="M410.388 147.377C410.774 147.377 411.152 147.492 411.473 147.706C411.794 147.921 412.045 148.226 412.193 148.583C412.341 148.94 412.379 149.332 412.304 149.711C412.228 150.09 412.042 150.438 411.769 150.712C411.496 150.985 411.148 151.171 410.769 151.246C410.39 151.322 409.997 151.283 409.64 151.135C409.283 150.987 408.978 150.737 408.764 150.416C408.549 150.094 408.435 149.717 408.435 149.33C408.435 149.074 408.485 148.82 408.583 148.583C408.681 148.346 408.825 148.13 409.007 147.949C409.188 147.768 409.403 147.624 409.64 147.526C409.877 147.427 410.131 147.377 410.388 147.377Z" fill="white"/>
<path d="M460.438 174.383H397.056V175.353H460.438V174.383Z" fill="#E0E0E0"/>
<path d="M460.438 179.861H397.056V180.831H460.438V179.861Z" fill="#E0E0E0"/>
<path d="M460.438 185.338H397.056V186.308H460.438V185.338Z" fill="#E0E0E0"/>
<path d="M460.438 190.816H397.056V191.786H460.438V190.816Z" fill="#E0E0E0"/>
<path d="M460.438 196.293H397.056V197.263H460.438V196.293Z" fill="#E0E0E0"/>
<path d="M411.057 176.049H408.38V178.726H411.057V176.049Z" fill="#E0E0E0"/>
<path d="M411.057 181.814H408.38V184.492H411.057V181.814Z" fill="#E0E0E0"/>
<path d="M411.057 187.004H408.38V189.681H411.057V187.004Z" fill="#E0E0E0"/>
<path d="M411.057 192.605H408.38V195.283H411.057V192.605Z" fill="#E0E0E0"/>
<path d="M411.057 198.043H408.38V200.72H411.057V198.043Z" fill="#E0E0E0"/>
<path d="M342.688 262.271H341.322V209.967C341.326 207.143 342.45 204.435 344.447 202.437C346.444 200.44 349.152 199.316 351.977 199.312H397.055V200.678H351.977C349.515 200.682 347.154 201.662 345.413 203.403C343.672 205.144 342.692 207.505 342.688 209.967V262.271Z" fill="#E0E0E0"/>
<path d="M339.957 262.367H338.591V209.584C338.594 206.158 339.957 202.874 342.38 200.451C344.802 198.028 348.087 196.666 351.513 196.662H397.056V198.028H351.513C348.449 198.032 345.512 199.25 343.346 201.417C341.179 203.583 339.96 206.521 339.957 209.584V262.367Z" fill="#E0E0E0"/>
<path d="M190.38 131.135H147.61V176.664H190.38V131.135Z" fill="#E6E6E6"/>
<path d="M201.335 131.135H190.38V176.664H201.335V131.135Z" fill="#F5F5F5"/>
<path d="M168.524 124.113H136.396V176.663H168.524V124.113Z" fill="#E6E6E6"/>
<path d="M177.799 124.113H168.51V176.663H177.799V124.113Z" fill="#F5F5F5"/>
<path d="M159.058 131.135H131.97V176.664H159.058V131.135Z" fill="#EBEBEB"/>
<path d="M165.246 131.135H159.058V176.664H165.246V131.135Z" fill="#F5F5F5"/>
<path d="M136.887 138.84H101.357V176.664H136.887V138.84Z" fill="#E6E6E6"/>
<path d="M145.984 138.84H136.887V176.664H145.984V138.84Z" fill="#F5F5F5"/>
<path d="M118.733 133.008H92.041V176.665H118.733V133.008Z" fill="#E6E6E6"/>
<path d="M126.437 133.008H118.719V176.665H126.437V133.008Z" fill="#F5F5F5"/>
<path d="M110.865 138.84H84.9385V176.664H110.865V138.84Z" fill="#E6E6E6"/>
<path d="M116.014 138.84H110.878V176.664H116.014V138.84Z" fill="#F0F0F0"/>
<path d="M54.6397 189.818L333.304 189.818V176.636L54.6397 176.636V189.818Z" fill="#E6E6E6"/>
<path d="M104.649 190.133H120.058L108.829 207.085H104.649V190.133Z" fill="#E0E0E0"/>
<path d="M104.649 190.133H102.423V207.085H104.649V190.133Z" fill="#E0E0E0"/>
<path d="M277.722 190.133H293.144L281.915 207.085H277.722V190.133Z" fill="#E0E0E0"/>
<path d="M277.735 190.133H275.509V207.085H277.735V190.133Z" fill="#E0E0E0"/>
<path d="M628.675 201.498H350.011V214.68H628.675V201.498Z" fill="#E6E6E6"/>
<path d="M578.679 231.933H574.485L563.257 214.98H578.679V231.933Z" fill="#E0E0E0"/>
<path d="M580.905 214.98H578.679V231.933H580.905V214.98Z" fill="#E0E0E0"/>
<path d="M405.593 231.933H401.399L390.171 214.98H405.593V231.933Z" fill="#E0E0E0"/>
<path d="M407.819 214.98H405.593V231.933H407.819V214.98Z" fill="#E0E0E0"/>
<path d="M269.717 150.108C269.718 148.15 269.428 146.203 268.856 144.33L273.924 139.877L270.741 134.345L264.348 136.517C261.656 133.639 258.172 131.624 254.335 130.725L252.969 124.113H246.59L245.224 130.725C241.392 131.624 237.912 133.64 235.225 136.517L228.819 134.345L225.636 139.877L230.704 144.33C229.557 148.097 229.557 152.12 230.704 155.886L225.636 160.34L228.819 165.872L235.225 163.7C237.912 166.577 241.392 168.593 245.224 169.492L246.59 176.103H252.969L254.335 169.492C258.172 168.593 261.656 166.577 264.348 163.7L270.741 165.872L273.924 160.34L268.856 155.886C269.428 154.014 269.718 152.066 269.717 150.108ZM249.828 160.845C247.782 160.845 245.783 160.239 244.083 159.102C242.382 157.966 241.057 156.351 240.274 154.462C239.491 152.572 239.287 150.493 239.686 148.487C240.085 146.481 241.07 144.639 242.516 143.192C243.962 141.746 245.804 140.761 247.81 140.362C249.816 139.963 251.895 140.168 253.785 140.951C255.674 141.734 257.289 143.059 258.426 144.759C259.562 146.46 260.168 148.459 260.168 150.504C260.168 153.247 259.079 155.877 257.14 157.816C255.2 159.756 252.57 160.845 249.828 160.845Z" fill="#F0F0F0"/>
<path d="M304.223 153.457C303.558 152.354 302.729 151.359 301.764 150.506L303.13 146.258L299.442 144.25L296.587 147.665C294.092 146.97 291.448 147.037 288.992 147.856L285.973 144.605L282.38 146.791L283.91 150.957C282.068 152.783 280.804 155.111 280.277 157.65L275.946 158.634L276.056 162.828L280.44 163.593C281.094 166.098 282.472 168.355 284.402 170.081L283.036 174.329L286.724 176.337L289.579 172.922C292.079 173.603 294.725 173.537 297.188 172.731L300.206 175.982L303.785 173.797L302.255 169.617C304.097 167.796 305.361 165.472 305.889 162.937L310.219 161.953L310.11 157.746L305.739 156.995C305.418 155.745 304.906 154.551 304.223 153.457ZM296.75 166.325C295.599 167.033 294.263 167.384 292.912 167.332C291.561 167.281 290.255 166.83 289.161 166.036C288.066 165.242 287.232 164.141 286.764 162.872C286.296 161.604 286.215 160.225 286.531 158.91C286.847 157.595 287.546 156.404 288.54 155.487C289.534 154.571 290.778 153.969 292.113 153.76C293.449 153.55 294.817 153.742 296.044 154.311C297.271 154.879 298.301 155.799 299.004 156.954C299.944 158.496 300.235 160.348 299.812 162.105C299.39 163.861 298.289 165.378 296.75 166.325Z" fill="#F0F0F0"/>
<path d="M620.41 373.082H63.6011V380.09H620.41V373.082Z" fill="#92E3A9"/>
<path d="M96.7676 378.109V545.226H101.111L106.575 378.109H96.7676Z" fill="#92E3A9"/>
<path d="M148.047 383.572V538.395H152.391L157.855 383.572H148.047Z" fill="#92E3A9"/>
<path opacity="0.5" d="M148.047 383.572V538.395H152.391L157.855 383.572H148.047Z" fill="black"/>
<path d="M589.224 378.109V545.226H584.894L579.416 378.109H589.224Z" fill="#92E3A9"/>
<path d="M537.945 383.572V538.395H533.601L528.137 383.572H537.945Z" fill="#92E3A9"/>
<path opacity="0.5" d="M537.945 383.572V538.395H533.601L528.137 383.572H537.945Z" fill="black"/>
<path d="M599.128 387.589H86.5224L75.1846 380.09H610.465L599.128 387.589Z" fill="#92E3A9"/>
<path opacity="0.5" d="M599.128 387.589H86.5224L75.1846 380.09H610.465L599.128 387.589Z" fill="black"/>
<path d="M100.196 351.596V357.06C100.196 357.966 100.555 358.835 101.193 359.478L105.524 363.808C105.907 364.189 106.375 364.474 106.89 364.641C107.782 366.562 109.206 368.189 110.992 369.329C112.778 370.469 114.852 371.074 116.971 371.075H118.596C120.066 371.084 121.523 370.801 122.883 370.243C124.243 369.684 125.478 368.862 126.518 367.822C127.557 366.783 128.38 365.548 128.938 364.188C129.496 362.828 129.779 361.371 129.77 359.901V347.156H105.893V348.194H103.611C102.708 348.194 101.841 348.552 101.201 349.19C100.561 349.827 100.2 350.692 100.196 351.596ZM102.928 351.596C102.928 351.507 102.946 351.419 102.981 351.336C103.015 351.254 103.066 351.18 103.129 351.118C103.193 351.055 103.268 351.006 103.351 350.973C103.434 350.941 103.522 350.925 103.611 350.926H105.893V359.901C105.893 360.024 105.893 360.147 105.893 360.27L103.161 357.538C103.095 357.477 103.043 357.403 103.007 357.32C102.972 357.238 102.955 357.149 102.956 357.06L102.928 351.596Z" fill="#92E3A9"/>
<path opacity="0.5" d="M100.196 351.596V357.06C100.196 357.966 100.555 358.835 101.193 359.478L105.524 363.808C105.907 364.189 106.375 364.474 106.89 364.641C107.782 366.562 109.206 368.189 110.992 369.329C112.778 370.469 114.852 371.074 116.971 371.075H118.596C120.066 371.084 121.523 370.801 122.883 370.243C124.243 369.684 125.478 368.862 126.518 367.822C127.557 366.783 128.38 365.548 128.938 364.188C129.496 362.828 129.779 361.371 129.77 359.901V347.156H105.893V348.194H103.611C102.708 348.194 101.841 348.552 101.201 349.19C100.561 349.827 100.2 350.692 100.196 351.596ZM102.928 351.596C102.928 351.507 102.946 351.419 102.981 351.336C103.015 351.254 103.066 351.18 103.129 351.118C103.193 351.055 103.268 351.006 103.351 350.973C103.434 350.941 103.522 350.925 103.611 350.926H105.893V359.901C105.893 360.024 105.893 360.147 105.893 360.27L103.161 357.538C103.095 357.477 103.043 357.403 103.007 357.32C102.972 357.238 102.955 357.149 102.956 357.06L102.928 351.596Z" fill="white"/>
<path d="M135.426 372.918H101.084C99.5141 372.779 98.0526 372.058 96.9863 370.896H139.469C138.419 372.049 136.977 372.769 135.426 372.918Z" fill="#92E3A9"/>
<path opacity="0.5" d="M135.426 372.918H101.084C99.5141 372.779 98.0526 372.058 96.9863 370.896H139.469C138.419 372.049 136.977 372.769 135.426 372.918Z" fill="white"/>
<path d="M597.434 356.199C597.256 350.735 593.131 349.451 587.749 348.836V346.855C587.742 346.626 587.645 346.408 587.478 346.25C587.312 346.091 587.091 346.005 586.861 346.008H568.256C568.141 346.005 568.027 346.024 567.919 346.064C567.812 346.105 567.713 346.166 567.63 346.245C567.546 346.324 567.479 346.418 567.431 346.523C567.384 346.627 567.358 346.74 567.354 346.855V372.686H587.763V369.859C593.145 369.258 597.27 361.635 597.434 356.199ZM587.749 366.526V352.183C591.71 352.756 594.442 353.303 593.855 357.264C593.39 360.433 590.904 366.088 587.749 366.526Z" fill="#92E3A9"/>
<g opacity="0.5">
<path d="M597.434 356.199C597.256 350.735 593.131 349.451 587.749 348.836V346.855C587.742 346.626 587.645 346.408 587.478 346.25C587.312 346.091 587.091 346.005 586.861 346.008H568.256C568.141 346.005 568.027 346.024 567.919 346.064C567.812 346.105 567.713 346.166 567.63 346.245C567.546 346.324 567.479 346.418 567.431 346.523C567.384 346.627 567.358 346.74 567.354 346.855V372.686H587.763V369.859C593.145 369.258 597.27 361.635 597.434 356.199ZM587.749 366.526V352.183C591.71 352.756 594.442 353.303 593.855 357.264C593.39 360.433 590.904 366.088 587.749 366.526Z" fill="white"/>
</g>
<path d="M349.546 339.766H333.44V372.481H349.546V339.766Z" fill="#92E3A9"/>
<path opacity="0.5" d="M349.546 339.766H333.44V372.481H349.546V339.766Z" fill="white"/>
<path d="M356.826 373.069H326.31L333.754 366.525H349.381L356.826 373.069Z" fill="#92E3A9"/>
<path opacity="0.5" d="M356.826 373.069H326.31L333.754 366.525H349.381L356.826 373.069Z" fill="white"/>
<path d="M423.91 362.48H347.633L361.416 373.108H437.68L423.91 362.48Z" fill="#92E3A9"/>
<path opacity="0.4" d="M423.91 362.48H347.633L361.416 373.108H437.68L423.91 362.48Z" fill="white"/>
<path d="M349.395 373.108L347.633 362.48L361.416 373.108H349.395Z" fill="#92E3A9"/>
<path opacity="0.5" d="M349.395 373.108L347.633 362.48L361.416 373.108H349.395Z" fill="black"/>
<path d="M410.523 262.326H271.697C270.241 262.326 269.061 263.507 269.061 264.963V350.092C269.061 351.548 270.241 352.728 271.697 352.728H410.523C411.98 352.728 413.16 351.548 413.16 350.092V264.963C413.16 263.507 411.98 262.326 410.523 262.326Z" fill="#92E3A9"/>
<path opacity="0.5" d="M407.777 267.98H274.292V346.758H407.777V267.98Z" fill="black"/>
<path opacity="0.4" d="M403.529 284.182H336.172V330.557H403.529V284.182Z" fill="black"/>
<path d="M403.529 284.182H336.172V288.43H403.529V284.182Z" fill="#92E3A9"/>
<path d="M348.521 309.836L359.531 315.928C359.951 316.13 360.327 316.414 360.637 316.761C360.825 317.034 360.921 317.359 360.911 317.69C360.911 317.921 360.866 318.151 360.777 318.364C360.687 318.578 360.557 318.771 360.391 318.933C360.239 319.096 360.055 319.226 359.851 319.315C359.646 319.404 359.426 319.451 359.203 319.452C358.714 319.397 358.245 319.223 357.837 318.947L343.631 311.051C343.403 310.938 343.212 310.764 343.078 310.548C342.945 310.332 342.874 310.083 342.874 309.829C342.874 309.575 342.945 309.326 343.078 309.11C343.212 308.894 343.403 308.719 343.631 308.606L357.837 300.711C358.248 300.446 358.716 300.282 359.203 300.233C359.427 300.229 359.65 300.273 359.857 300.359C360.064 300.446 360.251 300.575 360.405 300.738C360.571 300.897 360.703 301.088 360.792 301.299C360.881 301.51 360.926 301.738 360.924 301.967C360.936 302.298 360.84 302.624 360.651 302.896C360.34 303.244 359.965 303.527 359.545 303.73L348.521 309.836Z" fill="white"/>
<path d="M376.852 298.457L365.924 321.938C365.749 322.365 365.494 322.754 365.172 323.086C364.877 323.317 364.51 323.438 364.134 323.427C363.911 323.431 363.689 323.389 363.483 323.304C363.276 323.22 363.089 323.094 362.932 322.935C362.772 322.793 362.642 322.618 362.553 322.423C362.464 322.228 362.416 322.016 362.413 321.802C362.452 321.322 362.592 320.857 362.823 320.436L373.751 296.968C373.922 296.549 374.167 296.165 374.475 295.834C374.775 295.6 375.146 295.474 375.527 295.479C375.748 295.476 375.967 295.517 376.172 295.602C376.376 295.687 376.561 295.812 376.715 295.97C376.87 296.113 376.993 296.286 377.078 296.479C377.162 296.672 377.206 296.88 377.207 297.091C377.187 297.566 377.066 298.032 376.852 298.457Z" fill="white"/>
<path d="M390.553 309.836L379.543 303.73C379.127 303.52 378.753 303.237 378.436 302.896C378.247 302.624 378.151 302.298 378.163 301.967C378.161 301.738 378.206 301.51 378.295 301.299C378.385 301.087 378.516 300.897 378.682 300.738C378.84 300.576 379.029 300.447 379.238 300.36C379.447 300.273 379.672 300.23 379.898 300.233C380.384 300.284 380.852 300.448 381.264 300.711L395.47 308.606C395.698 308.719 395.889 308.894 396.023 309.11C396.156 309.326 396.227 309.575 396.227 309.829C396.227 310.083 396.156 310.332 396.023 310.548C395.889 310.764 395.698 310.938 395.47 311.051L381.264 318.947C380.855 319.22 380.387 319.394 379.898 319.452C379.667 319.455 379.438 319.409 379.226 319.317C379.014 319.225 378.824 319.09 378.669 318.919C378.507 318.758 378.379 318.567 378.292 318.355C378.206 318.144 378.162 317.918 378.163 317.69C378.153 317.359 378.249 317.034 378.436 316.761C378.753 316.42 379.127 316.138 379.543 315.928L390.553 309.836Z" fill="white"/>
<path d="M284.332 275.248H279.77V279.81H284.332V275.248Z" fill="white"/>
<path d="M284.332 287.064H279.77V291.627H284.332V287.064Z" fill="white"/>
<path d="M284.332 298.867H279.77V303.43H284.332V298.867Z" fill="white"/>
<path d="M284.332 310.668H279.77V315.23H284.332V310.668Z" fill="white"/>
<path d="M284.332 322.471H279.77V327.033H284.332V322.471Z" fill="white"/>
<path d="M284.332 334.273H279.77V338.836H284.332V334.273Z" fill="white"/>
<path d="M306.845 276.287H288.663V277.653H306.845V276.287Z" fill="white"/>
<path d="M299.372 288.117H292.897V289.483H299.372V288.117Z" fill="white"/>
<path d="M327.553 301.395H321.078V302.761H327.553V301.395Z" fill="white"/>
<path d="M299.372 311.926H292.897V313.292H299.372V311.926Z" fill="white"/>
<path d="M308.701 311.926H302.227V313.292H308.701V311.926Z" fill="white"/>
<path d="M318.769 301.395H302.227V302.761H318.769V301.395Z" fill="white"/>
<path d="M322.758 311.926H311.871V313.292H322.758V311.926Z" fill="white"/>
<path d="M318.305 337.238H311.83V338.604H318.305V337.238Z" fill="white"/>
<path d="M327.649 337.238H321.174V338.604H327.649V337.238Z" fill="white"/>
<path d="M334.424 337.238H330.804V338.604H334.424V337.238Z" fill="white"/>
<path d="M322.758 288.117H302.609V289.483H322.758V288.117Z" fill="white"/>
<path d="M308.701 324.26H302.227V325.626H308.701V324.26Z" fill="white"/>
<path d="M314.617 324.26H310.874V325.626H314.617V324.26Z" fill="white"/>
<path d="M328.045 324.26H317.472V325.626H328.045V324.26Z" fill="white"/>
<path d="M329.807 224.707C329.465 241.236 312.295 255.101 291.436 255.647C285.03 255.863 278.654 254.684 272.749 252.191C270.645 257.382 266.219 261.835 253.529 263.829C266.766 253.598 259.526 244.938 256.507 237.329C254.945 234.007 254.165 230.372 254.226 226.702C254.567 210.159 271.738 196.322 292.597 195.762C313.456 195.202 330.135 208.179 329.807 224.707Z" fill="#92E3A9"/>
<path d="M292.461 207.4H274.279V208.766H292.461V207.4Z" fill="white"/>
<path d="M284.989 219.242H278.514V220.608H284.989V219.242Z" fill="white"/>
<path d="M313.169 232.521H306.694V233.887H313.169V232.521Z" fill="white"/>
<path d="M284.989 243.053H278.514V244.419H284.989V243.053Z" fill="white"/>
<path d="M294.331 243.053H287.856V244.419H294.331V243.053Z" fill="white"/>
<path d="M304.399 232.521H287.856V233.887H304.399V232.521Z" fill="white"/>
<path d="M308.374 243.053H297.487V244.419H308.374V243.053Z" fill="white"/>
<path d="M308.388 219.242H288.239V220.608H308.388V219.242Z" fill="white"/>
<path d="M408.666 537.863L398.708 534.885L401.03 510.475L410.988 513.452L408.666 537.863Z" fill="#7F3E3B"/>
<path opacity="0.2" d="M411.808 507.933L401.849 504.969L400.552 518.642L410.619 520.514L411.808 507.933Z" fill="black"/>
<path d="M467.609 387.098C467.609 387.098 399.131 392.876 400.812 422.614C402.178 446.956 405.798 440.372 398.708 512.77L415.933 513.726C415.933 513.726 433.459 454.523 431.096 431.001C450.397 431.001 494.588 432.695 501.008 415.278C504.193 406.434 505.744 397.084 505.584 387.685L467.609 387.098Z" fill="#92E3A9"/>
<path d="M418.665 517.004L396.153 513.152L396.522 503.193L419.826 508.371L418.665 517.004Z" fill="#263238"/>
<path d="M397.684 530.786L409.185 533.067C409.394 533.116 409.577 533.242 409.698 533.418C409.82 533.595 409.87 533.811 409.841 534.024L408.885 544.952C408.868 545.209 408.799 545.46 408.684 545.691C408.568 545.922 408.408 546.127 408.212 546.295C408.016 546.463 407.788 546.59 407.543 546.669C407.297 546.748 407.038 546.777 406.781 546.755C402.792 545.88 400.907 545.238 395.853 544.228C392.739 543.613 385.622 542.124 381.292 541.632C376.961 541.14 377.48 536.086 379.352 535.827C387.766 534.72 392.547 533.354 395.812 531.251C396.351 530.857 397.023 530.691 397.684 530.786Z" fill="#263238"/>
<path d="M392.52 532.74C393.425 532.863 394.341 532.89 395.252 532.822C395.298 532.823 395.344 532.809 395.381 532.782C395.418 532.755 395.445 532.716 395.457 532.671C395.477 532.631 395.488 532.587 395.488 532.541C395.488 532.496 395.477 532.452 395.457 532.412C395.17 532.125 392.588 529.68 391.263 529.953C391.11 529.978 390.966 530.045 390.848 530.146C390.73 530.247 390.642 530.379 390.594 530.527C390.486 530.741 390.437 530.981 390.452 531.221C390.466 531.46 390.543 531.692 390.676 531.893C391.159 532.401 391.82 532.704 392.52 532.74ZM394.719 532.371C392.821 532.371 391.482 532.152 391.086 531.592C391.005 531.461 390.962 531.309 390.962 531.155C390.962 531.001 391.005 530.849 391.086 530.718C391.107 530.645 391.148 530.578 391.203 530.526C391.258 530.473 391.326 530.436 391.4 530.417C392.042 530.281 393.654 531.374 394.774 532.384L394.719 532.371Z" fill="#92E3A9"/>
<path d="M395.265 532.835H395.375C395.414 532.82 395.449 532.796 395.477 532.766C395.506 532.735 395.527 532.698 395.538 532.658C395.538 532.535 396.29 529.625 395.416 528.464C395.309 528.308 395.166 528.181 395 528.093C394.833 528.005 394.648 527.959 394.459 527.959C394.255 527.929 394.046 527.97 393.867 528.074C393.689 528.178 393.551 528.34 393.476 528.532C393.052 529.611 394.227 532.002 395.142 532.781C395.157 532.799 395.176 532.813 395.197 532.822C395.219 532.832 395.242 532.836 395.265 532.835ZM394.555 528.45C394.745 528.49 394.915 528.596 395.033 528.751C395.426 529.83 395.469 531.006 395.156 532.111C394.323 531.178 393.882 529.96 393.927 528.71C393.927 528.573 394.077 528.423 394.432 528.437L394.555 528.45Z" fill="#92E3A9"/>
<path d="M364.271 541.66L354.791 537.398L361.348 514.012L370.828 518.274L364.271 541.66Z" fill="#7F3E3B"/>
<path opacity="0.2" d="M372.426 512.25L362.946 507.988L359.572 520.05L369.052 524.312L372.426 512.25Z" fill="black"/>
<path d="M447.228 387.098C446.777 387.098 370.459 394.952 370.363 420.838C370.199 463.648 357.974 512.715 357.974 512.715L373 520.187C373 520.187 399.268 466.995 398.872 433.624C419.867 427.6 474.179 437.722 480.599 420.319C485.859 406.085 483.017 387.098 483.017 387.098H447.228Z" fill="#92E3A9"/>
<path d="M375.459 522.358L355.242 513.26L356.868 504.982L378.191 512.345L375.459 522.358Z" fill="#263238"/>
<path d="M355.734 529.544L367.263 531.934C367.479 532.006 367.663 532.153 367.781 532.348C367.898 532.544 367.942 532.775 367.905 533L367.003 544.952C366.839 546.25 365.91 547.138 364.913 546.933C360.924 546.018 359.039 545.307 353.985 544.201C350.871 543.573 342.388 541.469 338.112 540.39C333.837 539.311 334.793 533.833 336.746 533.792C345.202 533.669 350.679 532.289 353.931 529.926C354.188 529.741 354.482 529.612 354.792 529.546C355.102 529.48 355.423 529.479 355.734 529.544Z" fill="#263238"/>
<path d="M351.062 532.126C351.864 531.684 352.619 531.163 353.316 530.569C353.351 530.536 353.377 530.495 353.391 530.45C353.406 530.404 353.408 530.356 353.398 530.309C353.384 530.264 353.357 530.225 353.321 530.195C353.284 530.166 353.24 530.149 353.193 530.145C352.797 530.145 349.272 529.626 348.357 530.651C348.257 530.767 348.186 530.907 348.153 531.057C348.12 531.207 348.124 531.363 348.166 531.511C348.206 531.748 348.308 531.97 348.462 532.154C348.615 532.339 348.815 532.48 349.04 532.563C349.745 532.675 350.466 532.519 351.062 532.126ZM352.605 530.528C351.117 531.689 349.873 532.249 349.231 532.058C349.088 531.993 348.963 531.892 348.87 531.765C348.777 531.639 348.718 531.49 348.699 531.334C348.676 531.263 348.673 531.188 348.69 531.115C348.707 531.043 348.743 530.977 348.794 530.924C349.204 530.432 351.062 530.391 352.537 530.528H352.605Z" fill="#92E3A9"/>
<path d="M353.248 530.567L353.343 530.499C353.367 530.465 353.379 530.424 353.379 530.383C353.379 530.341 353.367 530.301 353.343 530.267C353.275 530.171 352.141 527.371 350.761 526.947C350.583 526.891 350.394 526.876 350.21 526.905C350.025 526.933 349.849 527.004 349.696 527.111C349.512 527.209 349.368 527.367 349.286 527.558C349.204 527.749 349.19 527.963 349.245 528.163C349.532 529.297 351.895 530.513 353.111 530.595L353.248 530.567ZM350.065 527.453C350.155 527.413 350.253 527.392 350.352 527.392C350.45 527.392 350.548 527.413 350.639 527.453C351.6 528.088 352.337 529.011 352.742 530.089C351.515 529.834 350.433 529.115 349.723 528.081C349.641 527.972 349.723 527.753 349.969 527.562L350.065 527.453Z" fill="#92E3A9"/>
<path d="M473.155 304.508C475.163 308.824 476.816 312.977 478.469 317.294C480.121 321.61 481.583 325.927 482.935 330.353C484.288 334.778 485.462 339.313 486.405 344.013C487.433 348.895 487.946 353.872 487.935 358.861C487.92 361.791 487.483 364.703 486.637 367.508C486.102 369.225 485.334 370.861 484.356 372.371C483.778 373.22 483.124 374.016 482.403 374.748L481.815 375.321C481.487 375.594 481.132 375.895 480.791 376.127C480.213 376.52 479.6 376.858 478.96 377.138C478.009 377.546 477.021 377.862 476.01 378.081C475.211 378.246 474.404 378.364 473.592 378.436C472.204 378.518 470.813 378.518 469.426 378.436C466.961 378.314 464.507 378.04 462.077 377.616C453.01 375.965 444.128 373.421 435.562 370.021L437.543 362.495C446.217 363.533 455.069 364.639 463.415 365.022C465.492 365.022 467.513 365.117 469.398 365.022C470.237 364.971 471.072 364.866 471.898 364.707C472.581 364.584 473.168 364.339 472.964 364.352C472.826 364.394 472.697 364.458 472.581 364.544C472.443 364.623 472.314 364.72 472.199 364.83C472.244 364.756 472.285 364.678 472.322 364.598C472.497 364.207 472.634 363.8 472.731 363.382C473.031 361.881 473.155 360.35 473.1 358.82C472.893 354.908 472.312 351.024 471.365 347.223C470.437 343.125 469.234 339.136 467.923 335.079C466.612 331.022 465.191 326.965 463.634 322.921C462.077 318.878 460.437 314.821 458.826 311.01L473.155 304.508Z" fill="#7F3E3B"/>
<path d="M441.313 364.544L432.257 359.449L427.708 369.257C427.708 369.257 438.295 373.669 440.521 370.91L441.313 364.544Z" fill="#7F3E3B"/>
<path d="M424.921 361.307L420.782 367.864L427.708 369.189L432.257 359.381L424.921 361.307Z" fill="#7F3E3B"/>
<path d="M452.036 312.296C450.302 316.653 448.485 320.819 446.572 325.04C444.66 329.261 442.748 333.414 440.726 337.567C436.655 346.021 432.094 354.231 427.066 362.155C425.7 364.176 424.334 366.184 422.804 368.192C422.039 369.203 421.192 370.2 420.29 371.225C419.799 371.744 419.403 372.222 418.829 372.755L418.009 373.547L417.545 373.984C416.244 375.096 414.714 375.908 413.064 376.361C412.195 376.608 411.309 376.795 410.414 376.921C408.955 377.096 407.484 377.155 406.016 377.099C403.479 377.02 400.951 376.769 398.448 376.347C389.187 374.71 380.116 372.138 371.374 368.67L373.368 361.13C382.206 362.196 391.236 363.329 399.732 363.684C401.736 363.759 403.742 363.732 405.743 363.603C406.548 363.536 407.347 363.408 408.133 363.22C408.388 363.156 408.635 363.064 408.871 362.947C408.953 362.947 408.871 362.851 408.502 363.083C408.365 363.154 408.241 363.246 408.133 363.357L408.27 363.193L408.652 362.769C408.898 362.523 409.199 362.114 409.485 361.786C410.045 361.075 410.619 360.31 411.193 359.477C412.327 357.852 413.433 356.049 414.526 354.218C416.712 350.557 418.747 346.664 420.741 342.73C422.736 338.796 424.648 334.78 426.533 330.737C430.29 322.677 433.964 314.345 437.461 306.285L452.036 312.296Z" fill="#7F3E3B"/>
<path d="M377.248 363.097L368.178 357.893L363.629 367.7C363.629 367.7 374.215 372.126 376.456 369.367L377.248 363.097Z" fill="#7F3E3B"/>
<path d="M360.856 359.873L356.703 366.416L363.629 367.741L368.178 357.934L360.856 359.873Z" fill="#7F3E3B"/>
<path d="M475.49 263.83L469.699 270.537L460.861 279.676L461.53 281.329C462.212 283.018 462.609 284.809 462.705 286.629C462.91 290.29 462.554 293.39 456.776 295.876C456.776 295.876 450.711 303.799 465.136 301.6C479.561 299.401 481.733 291.915 481.733 291.915C475.368 287.366 474.985 272.245 475.49 263.83Z" fill="#7F3E3B"/>
<path d="M446.08 256.261C446.08 257.163 445.63 257.928 445.029 257.955C444.428 257.982 443.949 257.272 443.936 256.37C443.922 255.469 444.4 254.704 444.988 254.677C445.575 254.649 446.067 255.36 446.08 256.261Z" fill="#263238"/>
<path d="M449.1 252.902C449.012 252.901 448.926 252.878 448.85 252.835C448.773 252.792 448.709 252.731 448.663 252.656C448.309 252.077 447.827 251.586 447.254 251.221C446.681 250.857 446.032 250.628 445.357 250.553C445.217 250.546 445.085 250.485 444.988 250.383C444.892 250.281 444.838 250.146 444.838 250.006C444.838 249.936 444.852 249.866 444.88 249.801C444.908 249.736 444.948 249.678 444.999 249.629C445.051 249.58 445.111 249.543 445.177 249.518C445.243 249.494 445.314 249.483 445.384 249.487C446.235 249.563 447.057 249.837 447.783 250.288C448.509 250.738 449.119 251.353 449.564 252.082C449.637 252.203 449.661 252.347 449.63 252.484C449.6 252.622 449.517 252.742 449.4 252.82C449.309 252.872 449.205 252.9 449.1 252.902Z" fill="#263238"/>
<path d="M445.753 256.809C445.017 259.268 443.961 261.619 442.611 263.803C443.172 264.119 443.796 264.308 444.439 264.355C445.081 264.402 445.726 264.307 446.327 264.076L445.753 256.809Z" fill="#630F0F"/>
<path d="M476.31 251.713C475.777 262.86 476.023 269.471 470.491 275.373C468.713 277.333 466.432 278.769 463.896 279.527C461.361 280.285 458.666 280.336 456.103 279.673C453.541 279.011 451.208 277.661 449.358 275.769C447.507 273.877 446.208 271.515 445.603 268.939C443.089 259.062 444.4 242.493 455.165 237.521C457.481 236.373 460.059 235.858 462.638 236.028C465.218 236.197 467.706 237.045 469.853 238.486C471.999 239.926 473.727 241.908 474.86 244.231C475.994 246.554 476.495 249.135 476.31 251.713Z" fill="#7F3E3B"/>
<path d="M481.365 255.442C479.756 260.17 477.303 264.567 474.125 268.419L459.618 271.151C459.618 271.151 448.157 266.357 451.217 258.461C449.277 256.822 450.001 251.754 451.367 248.967C452.467 249.871 453.855 250.347 455.278 250.31C456.701 250.272 458.062 249.723 459.112 248.763C459.552 249.45 460.144 250.027 460.842 250.448C461.541 250.869 462.327 251.123 463.14 251.19C463.953 251.258 464.771 251.137 465.529 250.836C466.288 250.536 466.967 250.065 467.513 249.459C468.135 250.061 468.887 250.51 469.712 250.772C470.536 251.034 471.41 251.102 472.265 250.969C473.12 250.837 473.932 250.509 474.639 250.01C475.346 249.511 475.927 248.855 476.338 248.093C477.229 248.651 478.273 248.914 479.323 248.845C480.372 248.776 481.373 248.38 482.184 247.711L482.389 247.52C482.585 250.203 482.237 252.898 481.365 255.442Z" fill="#263238"/>
<path opacity="0.1" d="M481.365 255.442C479.756 260.17 477.303 264.567 474.125 268.419L459.618 271.151C459.618 271.151 448.157 266.357 451.217 258.461C449.277 256.822 450.001 251.754 451.367 248.967C452.467 249.871 453.855 250.347 455.278 250.31C456.701 250.272 458.062 249.723 459.112 248.763C459.552 249.45 460.144 250.027 460.842 250.448C461.541 250.869 462.327 251.123 463.14 251.19C463.953 251.258 464.771 251.137 465.529 250.836C466.288 250.536 466.967 250.065 467.513 249.459C468.135 250.061 468.887 250.51 469.712 250.772C470.536 251.034 471.41 251.102 472.265 250.969C473.12 250.837 473.932 250.509 474.639 250.01C475.346 249.511 475.927 248.855 476.338 248.093C477.229 248.651 478.273 248.914 479.323 248.845C480.372 248.776 481.373 248.38 482.184 247.711L482.389 247.52C482.585 250.203 482.237 252.898 481.365 255.442Z" fill="white"/>
<path d="M483.454 241.919C483.848 242.842 483.957 243.862 483.767 244.848C483.577 245.833 483.097 246.74 482.389 247.451L482.184 247.642C481.373 248.311 480.372 248.708 479.322 248.776C478.273 248.845 477.229 248.582 476.338 248.025C475.927 248.786 475.346 249.442 474.639 249.941C473.932 250.44 473.12 250.769 472.265 250.901C471.41 251.033 470.536 250.966 469.712 250.704C468.887 250.442 468.135 249.992 467.513 249.391C466.967 249.996 466.288 250.468 465.529 250.768C464.771 251.068 463.953 251.189 463.14 251.122C462.327 251.054 461.541 250.8 460.842 250.379C460.144 249.958 459.552 249.381 459.112 248.694C458.062 249.654 456.701 250.204 455.278 250.241C453.855 250.279 452.467 249.802 451.367 248.899C450.786 248.449 450.318 247.868 450.001 247.205C449.926 247.06 449.862 246.909 449.81 246.754C449.693 246.887 449.565 247.011 449.427 247.123C448.746 247.668 447.912 247.987 447.041 248.039C446.171 248.09 445.305 247.871 444.564 247.41C443.978 247.003 443.508 246.45 443.202 245.805C442.895 245.161 442.762 244.447 442.816 243.735C442.832 243.439 442.882 243.146 442.966 242.861C442.858 243.067 442.72 243.256 442.556 243.421C442.231 243.735 441.846 243.982 441.424 244.146C441.002 244.31 440.552 244.389 440.099 244.377C439.647 244.366 439.201 244.265 438.788 244.079C438.375 243.894 438.003 243.629 437.693 243.298C437.378 242.822 437.164 242.286 437.062 241.724C436.96 241.162 436.973 240.585 437.101 240.028C437.229 239.471 437.468 238.946 437.805 238.484C438.141 238.023 438.568 237.634 439.059 237.343C439.839 236.889 440.726 236.653 441.627 236.66C443.047 236.68 444.423 237.159 445.548 238.026C445.114 237.164 444.998 236.178 445.219 235.239C445.441 234.301 445.987 233.471 446.76 232.895C447.533 232.319 448.485 232.034 449.448 232.091C450.41 232.147 451.322 232.541 452.023 233.204C451.871 232.506 451.931 231.78 452.197 231.117C452.462 230.455 452.92 229.887 453.512 229.488C455.397 228.395 458.539 229.338 460.068 231.168C460.068 231.168 462.172 226.087 465.806 226.66C466.598 226.77 470.327 228.423 470.232 229.761C470.252 229.847 470.252 229.935 470.232 230.021C470.283 229.916 470.342 229.815 470.409 229.72C470.811 229.178 471.34 228.744 471.95 228.455C472.56 228.167 473.232 228.034 473.906 228.067C475.366 228.175 476.793 228.555 478.113 229.188C480.941 230.349 483.946 231.646 485.585 234.228C487.225 236.81 486.391 241.099 483.454 241.919Z" fill="#263238"/>
<path d="M457.61 259.539C457.207 262.29 455.945 264.843 454.004 266.834C451.531 269.197 449.428 266.834 449.4 263.241C449.4 259.99 450.616 254.84 453.498 253.884C456.381 252.928 458.156 255.947 457.61 259.539Z" fill="#7F3E3B"/>
<path d="M501.322 295.794C500.298 293.062 495.517 290.33 492.58 290.33H490.64C486.727 290.364 482.819 290.615 478.933 291.081C471.125 291.945 463.372 293.25 455.711 294.988C452.187 295.917 448.786 297.092 446.081 298.103C442.639 299.469 440.617 300.384 440.617 300.384C440.617 300.384 444.387 325.491 446.341 350.434C447.42 364.326 446.969 378.109 447.324 387.589H505.598C507.606 376.197 507.292 366.266 507.456 345.694C507.538 333.304 505.53 307.036 501.322 295.794Z" fill="#263238"/>
<path opacity="0.2" d="M445.07 336.501C445.507 341.733 445.958 347.224 446.436 352.716C453.266 342.744 457.036 315.465 457.036 315.465L445.07 336.501Z" fill="black"/>
<path d="M437.311 302.214C428.965 306.913 420.782 330.9 420.782 330.9L439.906 345.311C447.201 338.413 457.869 321.297 459.03 314.453C460.888 304.017 450.684 294.728 437.311 302.214Z" fill="#263238"/>
<path d="M420.81 547.001C420.81 548.176 420.462 549.325 419.809 550.302C419.156 551.279 418.228 552.041 417.142 552.49C416.056 552.94 414.861 553.058 413.709 552.829C412.556 552.599 411.497 552.033 410.666 551.202C409.835 550.371 409.269 549.313 409.04 548.16C408.811 547.007 408.928 545.813 409.378 544.727C409.828 543.641 410.589 542.713 411.567 542.06C412.544 541.407 413.693 541.059 414.868 541.059C416.444 541.059 417.955 541.685 419.07 542.799C420.184 543.913 420.81 545.425 420.81 547.001Z" fill="#263238"/>
<path d="M509.518 547.001C509.518 548.176 509.866 549.325 510.519 550.302C511.172 551.279 512.1 552.041 513.186 552.49C514.272 552.94 515.466 553.058 516.619 552.829C517.772 552.599 518.83 552.033 519.661 551.202C520.492 550.371 521.058 549.313 521.288 548.16C521.517 547.007 521.399 545.813 520.949 544.727C520.5 543.641 519.738 542.713 518.761 542.06C517.784 541.407 516.635 541.059 515.46 541.059C513.884 541.059 512.372 541.685 511.258 542.799C510.144 543.913 509.518 545.425 509.518 547.001Z" fill="#263238"/>
<path d="M459.345 545.034C459.345 546.209 459.693 547.358 460.346 548.335C460.999 549.312 461.927 550.074 463.013 550.524C464.099 550.973 465.293 551.091 466.446 550.862C467.599 550.633 468.658 550.067 469.489 549.236C470.32 548.405 470.885 547.346 471.115 546.193C471.344 545.04 471.226 543.846 470.777 542.76C470.327 541.674 469.565 540.746 468.588 540.093C467.611 539.44 466.462 539.092 465.287 539.092C463.711 539.092 462.2 539.718 461.085 540.832C459.971 541.947 459.345 543.458 459.345 545.034Z" fill="#263238"/>
<path d="M463.443 537.767V526.279H446.423C443.082 526.275 439.747 526.586 436.465 527.208L404.773 533.355C404.062 533.494 403.43 533.895 403.001 534.479C402.573 535.063 402.38 535.787 402.46 536.506C402.541 537.226 402.89 537.889 403.438 538.363C403.985 538.837 404.691 539.088 405.415 539.065L463.443 537.767Z" fill="#263238"/>
<path d="M463.442 537.767V526.279H480.476C483.806 526.299 487.127 526.633 490.394 527.276L526.019 532.959C526.73 533.098 527.363 533.499 527.791 534.083C528.22 534.667 528.413 535.39 528.332 536.11C528.251 536.83 527.902 537.493 527.354 537.967C526.807 538.441 526.101 538.692 525.377 538.669L463.442 537.767Z" fill="#263238"/>
<path d="M473.975 473.688H452.897V526.292H473.975V473.688Z" fill="#263238"/>
<path d="M470.956 449.209H455.93V473.674H470.956V449.209Z" fill="#263238"/>
<path opacity="0.5" d="M455.93 456.394L470.956 460.178V449.209H455.93V456.394Z" fill="black"/>
<path d="M414.867 393.859H407.231V426.438H414.867V393.859Z" fill="#263238"/>
<path d="M453.156 449.209V307.568C453.154 304.918 453.72 302.299 454.816 299.886C455.912 297.473 457.512 295.323 459.508 293.58L469.603 284.742C473.003 281.761 477.375 280.123 481.897 280.139H518.355L536.141 299.153V449.209H453.156Z" fill="#92E3A9"/>
<path d="M398.872 421.807H482.061V449.209H385.307C383.572 449.206 381.869 448.745 380.37 447.872C378.87 447 377.628 445.746 376.768 444.239C375.909 442.732 375.463 441.025 375.475 439.29C375.487 437.556 375.957 435.855 376.838 434.36C379.1 430.531 382.322 427.358 386.187 425.156C390.051 422.954 394.424 421.8 398.872 421.807Z" fill="#92E3A9"/>
<path opacity="0.7" d="M536.141 299.153V449.209H385.307C383.572 449.206 381.869 448.745 380.37 447.872C378.87 446.999 377.628 445.746 376.768 444.239C375.909 442.732 375.463 441.025 375.475 439.29C375.487 437.556 375.957 435.855 376.838 434.36C379.101 430.532 382.324 427.36 386.188 425.158C390.052 422.956 394.424 421.801 398.872 421.807H440.767C444.067 421.807 447.232 420.496 449.566 418.162C451.9 415.828 453.211 412.663 453.211 409.362V307.568C453.209 304.918 453.775 302.299 454.871 299.886C455.967 297.473 457.566 295.323 459.563 293.58L469.658 284.742C473.058 281.761 477.43 280.123 481.952 280.139H518.41L536.141 299.153Z" fill="white"/>
<path d="M465.287 449.209V307.568C465.289 304.919 465.856 302.3 466.952 299.888C468.047 297.476 469.645 295.325 471.639 293.58L481.734 284.742C485.134 281.761 489.506 280.123 494.028 280.139H522.454C524.994 280.137 527.506 280.656 529.837 281.664C532.168 282.672 534.267 284.147 536.005 285.999L543.272 293.717C546.51 297.17 548.313 301.727 548.313 306.462V435.016C548.314 436.881 547.948 438.729 547.235 440.452C546.521 442.176 545.475 443.742 544.155 445.061C542.835 446.379 541.268 447.424 539.544 448.136C537.82 448.848 535.972 449.212 534.106 449.209H465.287Z" fill="#92E3A9"/>
<path opacity="0.5" d="M465.287 449.209V307.568C465.289 304.919 465.856 302.3 466.952 299.888C468.047 297.476 469.645 295.325 471.639 293.58L481.734 284.742C485.134 281.761 489.506 280.123 494.028 280.139H522.454C524.994 280.137 527.506 280.656 529.837 281.664C532.168 282.672 534.267 284.147 536.005 285.999L543.272 293.717C546.51 297.17 548.313 301.727 548.313 306.462V435.016C548.314 436.881 547.948 438.729 547.235 440.452C546.521 442.176 545.475 443.742 544.155 445.061C542.835 446.379 541.268 447.424 539.544 448.136C537.82 448.848 535.972 449.212 534.106 449.209H465.287Z" fill="white"/>
<path d="M436.984 403.802C420.18 397.928 401.88 397.928 385.076 403.802C383.389 404.432 381.531 404.425 379.849 403.784C378.167 403.143 376.777 401.911 375.937 400.319C374.38 397.027 376.47 392.765 380.705 391.276C400.33 384.418 421.702 384.418 441.328 391.276C445.562 392.751 447.652 397.027 446.095 400.319C445.256 401.905 443.87 403.133 442.194 403.773C440.518 404.414 438.667 404.424 436.984 403.802Z" fill="#92E3A9"/>
<path opacity="0.7" d="M436.984 403.802C420.18 397.928 401.88 397.928 385.076 403.802C383.389 404.432 381.531 404.425 379.849 403.784C378.167 403.143 376.777 401.911 375.937 400.319C374.38 397.027 376.47 392.765 380.705 391.276C400.33 384.418 421.702 384.418 441.328 391.276C445.562 392.751 447.652 397.027 446.095 400.319C445.256 401.905 443.87 403.133 442.194 403.773C440.518 404.414 438.667 404.424 436.984 403.802Z" fill="white"/>
<path d="M224.693 268.268C224.407 269.074 224.611 269.879 225.144 270.057C225.677 270.235 226.333 269.743 226.606 268.937C226.879 268.131 226.688 267.311 226.169 267.134C225.65 266.956 224.98 267.448 224.693 268.268Z" fill="#263238"/>
<path d="M224.543 269.102C224.654 271.914 225.146 274.699 226.004 277.38C225.316 277.574 224.594 277.619 223.887 277.51C223.18 277.402 222.505 277.143 221.906 276.751L224.543 269.102Z" fill="#A02724"/>
<path d="M223.382 262.777C223.432 262.798 223.485 262.808 223.539 262.808C223.593 262.808 223.646 262.798 223.696 262.777C224.297 262.586 224.933 262.535 225.556 262.63C226.179 262.725 226.772 262.962 227.289 263.323C227.342 263.363 227.404 263.392 227.468 263.408C227.533 263.424 227.601 263.427 227.667 263.417C227.733 263.407 227.796 263.384 227.853 263.349C227.91 263.314 227.96 263.268 227.999 263.214C228.075 263.121 228.116 263.006 228.116 262.886C228.116 262.767 228.075 262.651 227.999 262.558C227.357 262.082 226.611 261.765 225.822 261.634C225.034 261.503 224.225 261.563 223.464 261.807C223.339 261.854 223.237 261.946 223.179 262.065C223.12 262.185 223.11 262.322 223.15 262.449C223.173 262.523 223.213 262.59 223.268 262.645C223.323 262.7 223.39 262.74 223.464 262.763L223.382 262.777Z" fill="#263238"/>
<path d="M194.737 271.246C196.267 279.019 197.783 293.266 192.347 298.457C192.347 298.457 194.478 306.339 208.93 306.339C224.817 306.339 216.525 298.457 216.525 298.457C207.851 296.38 209.244 289.947 210.76 283.909L194.737 271.246Z" fill="#B55B52"/>
<path d="M198.275 257.149C195.433 267.312 193.248 273.118 196.499 279.962C201.375 290.275 218.423 291.613 223.067 279.811C226.605 268.883 230.102 257.45 221.701 250.114C219.865 248.488 217.643 247.357 215.247 246.829C212.851 246.302 210.359 246.395 208.009 247.099C205.659 247.804 203.528 249.096 201.817 250.855C200.106 252.614 198.873 254.78 198.234 257.149H198.275Z" fill="#B55B52"/>
<path d="M187.265 260.537C186.528 256.794 186.336 252.696 188.208 249.363C190.079 246.03 194.601 243.995 197.893 245.934C198.963 243.681 200.545 241.709 202.513 240.177C204.481 238.645 206.781 237.595 209.228 237.111C211.674 236.626 214.201 236.722 216.604 237.389C219.007 238.056 221.221 239.276 223.069 240.952C224.916 242.628 226.346 244.713 227.243 247.04C228.14 249.367 228.48 251.872 228.236 254.354C227.991 256.837 227.17 259.227 225.836 261.335C224.502 263.443 222.693 265.209 220.555 266.493C221.306 263.692 222.071 260.906 222.822 258.105C222.151 262.004 220.082 265.525 217.003 268.009L218.369 259.635C218.154 261.612 217.482 263.511 216.406 265.183C215.329 266.854 213.878 268.252 212.168 269.266L213.766 263.405C212.956 266.1 211.923 268.723 210.679 271.246C209.313 272.817 208.438 283.089 203.739 283.417C187.593 286.627 188.986 269.279 187.265 260.537Z" fill="#263238"/>
<path d="M208.998 265.399C208.725 268.005 209.31 270.629 210.664 272.871C212.481 275.795 215.145 274.675 216.128 271.683C217.003 268.951 217.098 264.238 214.571 262.34C212.044 260.441 209.38 262.271 208.998 265.399Z" fill="#B55B52"/>
<path d="M170.49 363.861C168.756 363.287 160.628 359.107 159.33 359.858C163.087 350.296 165.423 348.807 167.13 342.715C167.605 341.202 167.688 339.594 167.37 338.04C167.052 336.487 166.345 335.04 165.313 333.836C162.909 330.612 162.076 328.987 158.087 329.383C152.623 338.562 145.67 349.873 142.966 360.241C142.05 363.724 141.395 366.374 143.471 369.325C145.301 371.92 148.675 372.958 151.845 373.245C159.453 373.928 170.75 372.535 170.6 368.013C170.518 365.158 170.49 363.861 170.49 363.861Z" fill="#B55B52"/>
<path d="M169.206 363.52L175.654 361.43L175.08 373.082C175.08 373.082 169.917 373.259 167.157 369.803L169.206 363.52Z" fill="#B55B52"/>
<path d="M183.713 361.238L182.798 370.855L175.08 373.081L175.654 361.429L183.713 361.238Z" fill="#B55B52"/>
<path d="M257.641 371.797C257.641 371.797 248.612 364.721 236.837 341.499C235.089 338.248 233.422 334.956 231.81 331.65C230.199 328.344 228.669 325.039 227.193 321.528L241.154 315.518C244.022 321.774 248.503 328.235 251.672 334.45C254.841 340.666 262.313 355.391 263.256 356.757C263.72 357.467 264.226 358.055 264.704 358.711L265.428 359.667L256.426 370.076L257.641 371.797Z" fill="#B55B52"/>
<path d="M269.457 326.474L266.725 323.141L265.441 318.155L273.87 310.328C275.159 311.967 276.306 313.713 277.298 315.546C277.515 315.968 277.619 316.439 277.599 316.912L277.257 325.696L269.457 326.474Z" fill="#B55B52"/>
<path d="M265.496 312.772L271.793 307.049L273.788 310.396L265.373 318.182L265.496 312.772Z" fill="#B55B52"/>
<path d="M269.58 324.069C269.799 323.127 269.99 324.971 270.619 324.233C272.476 321.993 275.181 321.761 276.793 324.233C278.405 326.706 277.025 351.034 274.457 358.67C272.75 363.738 271.834 367.781 267.463 370.868C265.696 372.232 263.546 373.006 261.316 373.081C260.206 373.095 259.114 372.791 258.171 372.205C257.227 371.62 256.47 370.777 255.989 369.776C254.623 366.593 259.513 355.118 261.234 351.417C266.63 339.765 266.999 335.079 269.58 324.069Z" fill="#B55B52"/>
<path d="M251.508 323.017L262.668 322.908C264.261 323.01 265.856 322.758 267.34 322.17C269.158 321.109 270.516 319.409 271.151 317.403C272.735 313.305 272.872 308.906 273.487 304.617C274.101 300.328 275.413 295.82 278.664 292.938C272.735 293.73 262.272 291.872 257.696 296.721C255.292 299.303 251.043 323.017 251.508 323.017Z" fill="#92E3A9"/>
<path opacity="0.5" d="M251.508 323.017L262.668 322.908C264.261 323.01 265.856 322.758 267.34 322.17C269.158 321.109 270.516 319.409 271.151 317.403C272.735 313.305 272.872 308.906 273.487 304.617C274.101 300.328 275.413 295.82 278.664 292.938C272.735 293.73 262.272 291.872 257.696 296.721C255.292 299.303 251.043 323.017 251.508 323.017Z" fill="white"/>
<path d="M270.605 306.434C269.963 306.612 269.539 308.893 269.676 309.549L270.304 310.669L271.575 316.133L275.837 313.784L271.998 306.954C271.851 306.73 271.637 306.559 271.387 306.466C271.136 306.372 270.862 306.361 270.605 306.434Z" fill="#B55B52"/>
<path d="M174.343 300.41C164.371 302.691 149.618 333.767 149.618 333.767L169.63 347.427C175.393 339.204 180.596 330.601 185.202 321.678C191.117 309.302 184.533 298.074 174.343 300.41Z" fill="#92E3A9"/>
<path d="M188.904 301.162C187.756 298.663 186.513 295.808 189.095 294.92C191.95 293.936 207.577 292.925 212.959 294.769C213.664 294.961 214.324 295.289 214.902 295.737C215.479 296.184 215.963 296.741 216.325 297.375C216.686 298.01 216.919 298.71 217.01 299.435C217.1 300.16 217.047 300.895 216.852 301.599V301.695L188.904 301.162Z" fill="#263238"/>
<path opacity="0.2" d="M180.503 318.359L166.283 345.133L169.63 347.428C169.63 347.428 176.077 338.453 180.558 330.694L180.503 318.359Z" fill="black"/>
<path d="M234.952 314.085C237.11 325.013 232.07 350.967 232.124 393.313H175.271C174.903 384.762 181.132 364.49 173.386 324.111C173.141 322.745 173.031 300.684 174.343 300.452C179.848 299.49 185.402 298.833 190.98 298.485C199.033 298.021 207.106 298.021 215.159 298.485C218.451 298.827 223.628 300.862 226.906 302.037C232.001 303.84 233.914 308.716 234.952 314.085Z" fill="#92E3A9"/>
<path opacity="0.2" d="M219.926 324.943C221.401 333.918 227.289 345.775 233.149 352.741C233.381 347.646 233.9 342.319 233.886 338.235L219.926 324.943Z" fill="black"/>
<path d="M215.828 311.447C214.462 321.514 234.269 347.209 234.269 347.209L254.199 333.549C254.199 333.549 248.667 319.383 239.364 310.094C228.805 299.467 217.427 300.519 215.828 311.447Z" fill="#92E3A9"/>
<path d="M281.014 534.283H291.641L294.059 509.654H283.431L281.014 534.283Z" fill="#B55B52"/>
<path opacity="0.2" d="M293.895 511.143L292.666 523.833H282.024L283.267 511.143H293.895Z" fill="black"/>
<path d="M239.091 534.283H249.718L255.059 509.654H244.432L239.091 534.283Z" fill="#B55B52"/>
<g opacity="0.2">
<path d="M244.2 510.965H254.827L252.068 523.655H241.44L244.2 510.965Z" fill="black"/>
</g>
<path d="M292.242 529.502H280.645C280.405 529.53 280.182 529.641 280.015 529.815C279.848 529.99 279.747 530.217 279.729 530.458L277.626 542.616C277.505 543.087 277.553 543.586 277.763 544.026C277.973 544.465 278.33 544.817 278.773 545.02C278.9 545.04 279.029 545.04 279.156 545.02C283.336 544.938 289.387 544.61 294.646 544.61C300.807 544.61 306.12 545.033 313.333 545.033C317.704 545.033 318.92 539.324 317.089 538.818C308.77 536.469 301.981 536.223 294.796 530.472C294.081 529.866 293.179 529.524 292.242 529.502Z" fill="#263238"/>
<path d="M300.683 533.451C302.049 533.451 303.416 533.26 303.812 532.645C303.924 532.482 303.985 532.289 303.985 532.092C303.985 531.894 303.924 531.701 303.812 531.538C303.63 531.251 303.347 531.041 303.019 530.951C301.244 530.473 297.555 532.59 297.378 532.686C297.331 532.709 297.294 532.747 297.271 532.794C297.249 532.841 297.243 532.895 297.255 532.945C297.262 532.995 297.284 533.041 297.318 533.078C297.353 533.114 297.397 533.14 297.446 533.15C298.513 533.352 299.597 533.453 300.683 533.451ZM302.377 531.388H302.855C302.958 531.409 303.055 531.452 303.14 531.513C303.224 531.574 303.295 531.653 303.347 531.743C303.525 532.057 303.47 532.208 303.347 532.29C302.855 532.986 300.164 533 298.184 532.713C299.487 532.011 300.909 531.557 302.377 531.375V531.388Z" fill="#92E3A9"/>
<path d="M297.474 533.15H297.583C298.867 532.576 301.408 530.281 301.203 529.052C301.203 528.765 300.957 528.423 300.274 528.341C299.78 528.304 299.29 528.461 298.908 528.778C297.542 529.885 297.269 532.753 297.256 532.876C297.249 532.92 297.255 532.965 297.271 533.006C297.288 533.046 297.316 533.082 297.351 533.109C297.387 533.134 297.43 533.149 297.474 533.15ZM300.069 528.847H300.22C300.671 528.847 300.698 529.079 300.712 529.134C300.834 529.858 299.1 531.661 297.788 532.439C297.9 531.237 298.376 530.098 299.154 529.175C299.415 528.967 299.737 528.852 300.069 528.847Z" fill="#92E3A9"/>
<path d="M250.47 529.503H238.531C238.292 529.531 238.071 529.642 237.906 529.817C237.742 529.992 237.643 530.219 237.629 530.459L235.526 542.616C235.411 543.098 235.471 543.604 235.693 544.047C235.915 544.489 236.287 544.838 236.741 545.034C236.855 545.047 236.969 545.047 237.083 545.034C241.249 544.952 243.284 544.624 248.53 544.624C251.767 544.624 255.906 545.048 260.373 545.048C264.84 545.048 265.414 539.338 263.583 538.832C255.387 536.51 254.827 533.368 252.204 530.254C251.987 530.011 251.719 529.817 251.42 529.688C251.12 529.558 250.796 529.495 250.47 529.503Z" fill="#263238"/>
<path d="M256.712 534.803C257.163 534.865 257.622 534.835 258.061 534.716C258.5 534.596 258.91 534.388 259.267 534.106C259.392 533.933 259.46 533.725 259.46 533.512C259.46 533.298 259.392 533.09 259.267 532.918C259.186 532.768 259.073 532.637 258.936 532.536C258.799 532.434 258.641 532.364 258.474 532.33C256.917 531.962 253.98 533.97 253.857 534.051C253.818 534.082 253.788 534.121 253.769 534.167C253.749 534.212 253.742 534.262 253.748 534.311C253.756 534.359 253.779 534.403 253.813 534.437C253.847 534.472 253.891 534.494 253.939 534.502C254.85 534.704 255.78 534.805 256.712 534.803ZM258.078 532.781H258.379C258.475 532.799 258.567 532.838 258.647 532.894C258.727 532.951 258.794 533.024 258.843 533.109C259.075 533.532 258.939 533.696 258.843 533.765C258.392 534.352 256.22 534.366 254.622 534.106C255.649 533.401 256.821 532.934 258.051 532.74L258.078 532.781Z" fill="#92E3A9"/>
<path d="M254.076 534.516C255.183 533.915 257.314 531.593 257.081 530.418C257.046 530.23 256.946 530.06 256.799 529.938C256.652 529.816 256.467 529.749 256.275 529.749C256.085 529.73 255.893 529.75 255.71 529.806C255.527 529.862 255.357 529.954 255.21 530.077C253.98 531.088 253.721 534.175 253.707 534.284C253.705 534.33 253.716 534.376 253.737 534.417C253.759 534.458 253.791 534.492 253.83 534.516H254.076ZM256.221 530.213H256.33C256.658 530.213 256.685 530.405 256.699 530.473C256.835 531.17 255.469 532.932 254.377 533.765C254.461 532.555 254.898 531.397 255.633 530.432C255.797 530.292 256.005 530.215 256.221 530.213Z" fill="#92E3A9"/>
<path d="M215.091 393.285C215.091 393.285 265.428 414.076 275.837 430.044C269.649 470.669 258.543 516.949 258.543 516.949H239.611C239.641 496.925 241.281 476.935 244.514 457.173C247.246 407.519 157.883 458.894 175.245 393.285H215.091Z" fill="#263238"/>
<path opacity="0.3" d="M249.896 427.558C246.37 427.766 242.859 428.172 239.378 428.774L228.354 430.468C234.041 435.246 240.042 439.636 246.317 443.609C250.129 446.027 254.281 448.349 258.775 448.362C263.83 448.362 277.544 441.888 275.277 435.153C273.009 428.419 255.634 427.312 249.896 427.558Z" fill="black"/>
<path d="M232.138 393.285C232.138 393.285 278.664 399.296 304.318 413.898C312.213 418.392 311.148 432.831 310.902 442.338C310.352 467.851 305.455 493.083 296.422 516.949H280.604C280.604 516.949 281.41 491.173 280.877 449.578C280.713 437.106 255.538 432.995 230.936 431.547C220.518 430.892 210.491 427.338 201.985 421.287C193.479 415.236 186.834 406.928 182.798 397.301L181.118 393.285H232.138Z" fill="#263238"/>
<path d="M300.261 512.715C300.343 512.715 299.236 520.187 299.236 520.187H277.38L276.779 513.521L300.261 512.715Z" fill="#92E3A9"/>
<path d="M260.373 512.715C260.455 512.715 258.365 520.187 258.365 520.187H236.509L236.905 513.521L260.373 512.715Z" fill="#92E3A9"/>
<path d="M201.649 430.986L185.981 546.426L183.153 546.03L195.242 430.111L201.649 430.986Z" fill="#92E3A9"/>
<path opacity="0.4" d="M201.089 435.125L185.981 546.427L183.153 546.031L194.723 435.098L201.089 435.125Z" fill="black"/>
<path d="M256.726 435.112H167.936C167.936 433.781 168.198 432.463 168.707 431.234C169.216 430.004 169.963 428.886 170.904 427.945C171.845 427.004 172.963 426.257 174.192 425.748C175.422 425.239 176.74 424.977 178.071 424.977H246.59C247.921 424.977 249.239 425.239 250.469 425.748C251.698 426.257 252.816 427.004 253.757 427.945C254.698 428.886 255.445 430.004 255.954 431.234C256.463 432.463 256.726 433.781 256.726 435.112Z" fill="#92E3A9"/>
<path opacity="0.7" d="M256.726 435.112H167.936C167.936 433.781 168.198 432.463 168.707 431.234C169.216 430.004 169.963 428.886 170.904 427.945C171.845 427.004 172.963 426.257 174.192 425.748C175.422 425.239 176.74 424.977 178.071 424.977H246.59C247.921 424.977 249.239 425.239 250.469 425.748C251.698 426.257 252.816 427.004 253.757 427.945C254.698 428.886 255.445 430.004 255.954 431.234C256.463 432.463 256.726 433.781 256.726 435.112Z" fill="white"/>
<path d="M172.048 435.098L158.661 547.342H161.53L178.509 435.098H172.048Z" fill="#92E3A9"/>
<path d="M252.614 435.098L266.001 547.342H263.133L246.167 435.098H252.614Z" fill="#92E3A9"/>
<path opacity="0.4" d="M252.614 435.098L266.001 547.342H263.133L246.167 435.098H252.614Z" fill="black"/>
<path d="M234.706 435.098L234.966 547.342H232.111L228.245 435.098H234.706Z" fill="#92E3A9"/>
</svg>
